# xmcd
#
# Track frame offsets:
#	150
#	16983
#	36578
#	59963
#	78240
#	92395
#	106243
#	127258
#	144018
#	161575
#	178742
#	199830
#	221385
#	238868
#
# Disc length: 3413 seconds
#
# Revision: 1
# Processed by: cddbd v1.5.1PL0 Copyright (c) Steve Scherf et al.
# Submitted via: CDex 1.50Beta5
#
DISCID=c40d530e
DTITLE=BoA - ジャンピング・イントゥ・ザ・ワールド
DYEAR=2002
DGENRE=Pop
TTITLE0=ドント・スタート・ナウ(コリアン・ヴァージョン)
TTITLE1=アゲイン
TTITLE2=デステニー
TTITLE3=ラヴ・レター
TTITLE4=ラヴ・ハーツ
TTITLE5=パワー
TTITLE6=レット・ユー・ゴー
TTITLE7=ドント・スタート・ナウ(イングリッシュ・ヴァージョン)
TTITLE8=ID;ピースB(イングリッシュ・ヴァージョン)
TTITLE9=サラ(イングリッシュ・ヴァージョン)
TTITLE10=ドリームズ・カム・トゥルー
TTITLE11=アイム・ソーリー(チャイニーズ・ヴァージョン)
TTITLE12=ID;ピースB(チャイニーズ・ヴァージョン)
TTITLE13=サラ(チャイニーズ・ヴァージョン)
EXTD=
EXTT0=
EXTT1=
EXTT2=
EXTT3=
EXTT4=
EXTT5=
EXTT6=
EXTT7=
EXTT8=
EXTT9=
EXTT10=
EXTT11=
EXTT12=
EXTT13=
PLAYORDER=
